<svg fill="white" id="Layer_2" data-name="Layer 2" xmlns="http://www.w3.org/2000/svg" viewBox="0 0 202.14 253.49">
  <path
    d="M.03,148.17c0-26.53-.07-53.07,.03-79.6,.07-17.17,6.87-24.13,24.09-24.21,36.38-.17,72.75-.16,109.13-.01,17.12,.07,24.43,7.23,24.47,24.13,.13,53.5,.14,106.99,.02,160.49-.04,17.9-6.91,24.46-25.11,24.49-35.95,.06-71.9,.07-107.85-.02-18.74-.05-24.7-5.92-24.77-24.37-.1-26.96-.02-53.92-.02-80.89ZM15.49,60.93c-.36,4.93-.93,9.08-.94,13.22-.06,50.08-.08,100.17,0,150.25,.02,13.75,.84,14.54,14.58,14.57,33.39,.08,66.78,.06,100.17-.02,3.71,0,7.42-.63,11.91-1.05V60.93H15.49Z" />
  <path
    d="M61.68,15.39c-.87,3.7-.78,7.12-2.39,9.25-2.04,2.7-5.95,6.45-8.15,5.93-2.7-.64-5.78-4.96-6.41-8.15C42.66,12.04,50.66,1.83,61.26,.29c2.52-.37,5.12-.26,7.69-.27,36.37-.01,72.74-.07,109.11,.02,17.8,.04,24,6.14,24.03,23.78,.08,53.91,.07,107.82-.01,161.74-.02,14.16-6.58,22.4-18.32,23.41-5.38,.47-11.17,0-12.43-6.26-1.34-6.65,3.9-8.58,9.45-9.39,1.65-.24,3.25-.81,5.88-1.5,.33-3.7,.93-7.42,.94-11.14,.06-50.49,.08-100.98,.02-151.47-.02-13.95-.75-14.7-14.35-14.73-33.37-.07-66.75-.05-100.12,.02-3.73,0-7.47,.55-11.44,.86Z" />
</svg>